<svg width="75" height="75" viewBox="0 0 75 75" fill="none" xmlns="http://www.w3.org/2000/svg">
<path d="M75 37.5C75 58.2107 58.2107 75 37.5 75C16.7893 75 0 58.2107 0 37.5C0 16.7893 16.7893 0 37.5 0C58.2107 0 75 16.7893 75 37.5ZM1.34633 37.5C1.34633 57.4671 17.5329 73.6537 37.5 73.6537C57.4671 73.6537 73.6537 57.4671 73.6537 37.5C73.6537 17.5329 57.4671 1.34633 37.5 1.34633C17.5329 1.34633 1.34633 17.5329 1.34633 37.5Z" fill="#CD1F47"/>
<circle opacity="0.4" cx="37.4999" cy="37.4999" r="31.0561" fill="#CD1F47"/>
<path d="M50.6562 37.5002L30.7875 49.2039L30.7875 25.7964L50.6562 37.5002Z" fill="#CD1F47"/>
</svg>
